<?xml version="1.0" encoding="UTF-8" standalone="no"?>
<!DOCTYPE svg PUBLIC "-//W3C//DTD SVG 1.1//EN" "http://www.w3.org/Graphics/SVG/1.1/DTD/svg11.dtd">
<svg width="100%" height="100%" viewBox="0 0 858 1009" version="1.1" xmlns="http://www.w3.org/2000/svg" xmlns:xlink="http://www.w3.org/1999/xlink" xml:space="preserve" xmlns:serif="http://www.serif.com/" style="fill-rule:evenodd;clip-rule:evenodd;stroke-linejoin:round;stroke-miterlimit:2;">
    <g transform="matrix(4.166667,0,0,4.166667,0,0)">
        <path d="M115.57,0C119.6,0.76 123.66,1.4 127.66,2.3C152.65,7.9 171.715,20.511 186.325,41.391C186.425,41.531 186.805,42.484 186.995,43.014C182.565,42.982 179.512,43.006 174.17,42.93C167.918,42.841 163.36,40.03 158.6,36.08C127.5,10.28 82.72,10.26 50.31,35.95C29.07,52.79 17.88,74.91 17,102.09C16.95,103.79 17,105.48 17,107.18L17,112.73C11.49,108.45 5.41,105.41 0.53,100.66C-0.12,98.99 0.78,97.16 0.01,95.5L0.01,94.36C0.68,88.76 0.95,83.12 2.4,77.61C6.82,60.8 14.72,45.99 26.72,33.29C43.45,15.56 63.96,5.1 87.81,0.79C90.4,0.33 93.06,0.57 95.64,0L97.92,0C99.06,0.46 100.2,0.46 101.34,0L110.45,0C111.58,0.46 112.72,0.46 113.86,0L115.57,0Z" style="fill:rgb(47,52,63);fill-rule:nonzero;"/>
    </g>
    <g transform="matrix(4.166667,0,0,4.166667,0,0)">
        <path d="M0,95.51C1.11,97.14 0.37,98.95 0.52,100.67C0.35,100.64 0.18,100.63 0,100.63L0,95.51Z" style="fill:rgb(155,157,162);fill-rule:nonzero;"/>
    </g>
    <g transform="matrix(4.166667,0,0,4.166667,0,0)">
        <g transform="matrix(0.152144,0,0,0.152144,-175.601104,-153.71589)">
            <g transform="matrix(4.166667,0,0,4.166667,2144.645833,2201.734167)">
                <path d="M-211.575,64.501L-138.92,-17.433C-126.523,-31.407 -120.432,-48.795 -120.432,-66.121C-120.432,-84.304 -127.136,-102.405 -140.33,-116.406C-101.815,-159.999 -75.763,-170.452 -75.763,-170.452L-75.084,-170.721L-74.594,-171.262C-66.087,-180.654 -60.782,-187.623 -56.789,-191.812C-54.814,-193.884 -53.44,-195.277 -51.918,-195.439C-51.334,-195.501 -50.782,-195.246 -50.151,-194.84C-49.421,-194.371 -48.66,-193.709 -47.82,-192.866C-44.033,-189.065 -39.081,-182.042 -31.07,-171.473L-30.168,-170.284L-28.677,-170.233C-16.374,-169.813 -7.949,-170.041 -2.343,-169.604C0.55,-169.378 2.526,-169.13 3.722,-168.151C4.305,-167.674 4.514,-166.956 4.632,-166.012C4.843,-164.331 4.665,-162.163 4.285,-159.358C3.311,-152.17 0.96,-141.275 -1.192,-124.729C-4.34,-133.15 -12.458,-139.145 -21.977,-139.145C-30.268,-139.145 -37.492,-134.599 -41.3,-127.859L-46.996,-130.227C-45.848,-132.898 -45.212,-135.842 -45.212,-138.937C-45.212,-151.19 -55.143,-161.121 -67.396,-161.121C-79.648,-161.121 -89.579,-151.19 -89.579,-138.937C-89.579,-126.685 -79.648,-116.753 -67.396,-116.753C-66.297,-116.753 -65.216,-116.833 -64.158,-116.988L-65.166,-97.8C-65.533,-91.122 -57.279,-87.685 -52.791,-92.659L-41.05,-105.632C-37.185,-99.132 -30.086,-94.777 -21.977,-94.777C-14.272,-94.777 -7.485,-98.704 -3.508,-104.666C-7.13,-82.525 -20.451,-56.784 -26.144,-47.251L-26.58,-47.906L-28.992,-43.048C-37.534,-25.84 -58.288,-8.088 -75.703,4.678C-76.416,2.755 -77.282,1.155 -78.235,-0.012C-79.897,-2.046 -81.886,-3.013 -83.886,-3.013C-85.887,-3.013 -87.876,-2.046 -89.538,-0.012C-90.017,0.575 -90.474,1.27 -90.9,2.061C-91.327,1.27 -91.784,0.575 -92.262,-0.012C-93.925,-2.046 -95.914,-3.013 -97.914,-3.013C-99.914,-3.013 -101.903,-2.046 -103.566,-0.012C-106.129,3.126 -108.065,9.398 -108.065,16.677C-108.065,20.783 -107.449,24.568 -106.452,27.651C-112.818,38.811 -132.412,73.137 -132.946,73.756L-133.466,74.358L-133.636,75.135C-133.933,76.488 -134.907,77.438 -136.15,78.195C-137.875,79.245 -140.097,79.903 -142.446,80.347C-149.213,81.626 -157.032,81.043 -159.12,80.778L-160.283,80.197L-161.776,81.133C-176.369,90.286 -191.652,94.144 -194.739,94.823C-194.883,94.855 -195.033,94.885 -195.094,94.898L-195.126,94.903C-207.603,96.853 -218.356,95.547 -224.697,92.16C-227.159,90.845 -228.914,89.294 -229.411,87.366C-229.867,85.594 -229.093,83.69 -227.308,81.622C-225.936,80.367 -214.692,70.061 -212.578,67.379C-211.773,66.36 -211.588,65.395 -211.619,64.665L-211.577,64.847C-211.577,64.731 -211.576,64.615 -211.575,64.501ZM-138.407,37.649C-137.981,38.44 -137.524,39.135 -137.045,39.721C-135.383,41.756 -133.394,42.722 -131.394,42.722C-129.393,42.722 -127.404,41.756 -125.742,39.721C-123.179,36.584 -121.243,30.312 -121.243,23.032C-121.243,15.753 -123.179,9.481 -125.742,6.343C-127.404,4.309 -129.393,3.342 -131.394,3.342C-133.394,3.342 -135.383,4.309 -137.045,6.343C-137.524,6.93 -137.981,7.625 -138.407,8.416C-138.834,7.625 -139.291,6.93 -139.77,6.343C-141.432,4.309 -143.421,3.342 -145.421,3.342C-147.422,3.342 -149.411,4.309 -151.073,6.343C-153.636,9.481 -155.572,15.753 -155.572,23.032C-155.572,30.312 -153.636,36.584 -151.073,39.721C-149.411,41.756 -147.422,42.722 -145.421,42.722C-143.421,42.722 -141.432,41.756 -139.77,39.721C-139.291,39.135 -138.834,38.44 -138.407,37.649ZM-135.27,23.032C-135.27,18.202 -134.353,13.9 -132.819,11.245C-132.519,10.726 -132.204,10.284 -131.854,9.95C-131.695,9.798 -131.577,9.616 -131.394,9.616C-131.211,9.616 -131.093,9.798 -130.933,9.95C-130.584,10.284 -130.268,10.726 -129.968,11.245C-128.434,13.9 -127.517,18.202 -127.517,23.032C-127.517,27.863 -128.434,32.165 -129.968,34.82C-130.268,35.339 -130.584,35.781 -130.933,36.114C-131.093,36.267 -131.211,36.448 -131.394,36.448C-131.577,36.448 -131.695,36.267 -131.854,36.114C-132.204,35.781 -132.519,35.339 -132.819,34.82C-134.353,32.165 -135.27,27.863 -135.27,23.032ZM-141.544,23.032C-141.544,27.863 -142.462,32.165 -143.996,34.82C-144.296,35.339 -144.611,35.781 -144.961,36.114C-145.12,36.267 -145.238,36.448 -145.421,36.448C-145.604,36.448 -145.722,36.267 -145.882,36.114C-146.231,35.781 -146.547,35.339 -146.847,34.82C-148.381,32.165 -149.298,27.863 -149.298,23.032C-149.298,18.202 -148.381,13.9 -146.847,11.245C-146.547,10.726 -146.231,10.284 -145.882,9.95C-145.722,9.798 -145.604,9.616 -145.421,9.616C-145.238,9.616 -145.12,9.798 -144.961,9.95C-144.611,10.284 -144.296,10.726 -143.996,11.245C-142.462,13.9 -141.544,18.202 -141.544,23.032ZM-87.763,16.873L-87.764,16.874L-87.763,16.677L-87.763,16.873ZM-94.037,16.677C-94.037,16.875 -94.036,17.073 -94.033,17.269L-94.042,17.275C-94.039,17.077 -94.037,16.878 -94.037,16.677ZM-37.688,-119.474C-37.511,-120.589 -37.218,-121.665 -36.823,-122.688C-36.804,-122.737 -36.785,-122.785 -36.766,-122.834L-36.822,-122.687C-37.218,-121.664 -37.511,-120.588 -37.688,-119.474ZM-211.315,54.751C-207.857,-32.306 -172.553,-76.364 -165.045,-85.783C-164.217,-86.822 -163.686,-87.521 -163.477,-87.867L-163.447,-87.941C-162.229,-89.563 -161.02,-91.154 -159.818,-92.715C-154.531,-99.588 -149.408,-105.882 -144.47,-111.646C-132.688,-98.908 -126.706,-82.551 -126.706,-66.121C-126.706,-50.277 -132.276,-34.376 -143.614,-21.597L-211.315,54.751ZM-57.773,-118.942C-54.872,-120.338 -52.323,-122.35 -50.302,-124.807L-43.58,-122.013C-43.959,-120.39 -44.16,-118.698 -44.16,-116.961C-44.16,-115.298 -43.974,-113.689 -43.627,-112.134L-57.446,-96.866C-57.975,-96.278 -58.944,-96.679 -58.901,-97.464L-58.901,-97.467L-57.773,-118.942ZM-61.884,-124.007L-61.989,-123.969C-63.678,-123.355 -65.502,-123.027 -67.396,-123.027C-76.183,-123.027 -83.305,-130.15 -83.305,-138.937C-83.305,-147.725 -76.183,-154.847 -67.396,-154.847C-58.609,-154.847 -51.486,-147.725 -51.486,-138.937C-51.486,-135.861 -52.363,-132.992 -53.882,-130.567L-54.029,-130.335C-55.861,-127.452 -58.622,-125.205 -61.884,-124.007Z" style="fill:rgb(47,52,63);fill-rule:nonzero;"/>
            </g>
            <path d="M1778.966,2271.223C1778.966,2265.966 1779.227,2260.858 1779.726,2255.984C1781.138,2242.199 1784.458,2230.281 1789.181,2222.107C1790.429,2219.948 1791.745,2218.105 1793.199,2216.715C1793.866,2216.078 1794.357,2215.323 1795.12,2215.323C1795.882,2215.323 1796.374,2216.078 1797.04,2216.715C1798.494,2218.105 1799.81,2219.948 1801.058,2222.107C1803.446,2226.24 1805.476,2231.331 1807.082,2237.137C1808.252,2241.367 1809.197,2245.978 1809.891,2250.873C1810.557,2255.572 1810.993,2260.534 1811.176,2265.675C1811.241,2267.503 1811.274,2269.354 1811.274,2271.223C1811.274,2291.35 1807.452,2309.276 1801.058,2320.339C1799.81,2322.499 1798.494,2324.342 1797.04,2325.732C1796.374,2326.368 1795.882,2327.123 1795.12,2327.123C1794.357,2327.123 1793.866,2326.368 1793.199,2325.732C1791.745,2324.342 1790.429,2322.499 1789.181,2320.339C1784.522,2312.277 1781.229,2300.572 1779.785,2287.026C1779.274,2282.233 1778.994,2277.211 1778.968,2272.038L1778.966,2271.223Z" style="fill:rgb(47,52,63);"/>
            <path d="M1722.099,2292.925C1721.067,2286.178 1720.517,2278.859 1720.517,2271.223C1720.517,2251.096 1724.339,2233.171 1730.733,2222.107C1731.981,2219.948 1733.296,2218.105 1734.751,2216.715C1735.417,2216.078 1735.909,2215.323 1736.671,2215.323C1737.433,2215.323 1737.925,2216.078 1738.591,2216.715C1740.045,2218.105 1741.361,2219.948 1742.609,2222.107C1749.003,2233.171 1752.824,2251.096 1752.824,2271.223C1752.824,2272.057 1752.818,2272.888 1752.805,2273.714C1752.716,2279.317 1752.331,2284.73 1751.674,2289.851C1750.849,2296.294 1749.596,2302.273 1747.971,2307.583C1746.482,2312.45 1744.681,2316.755 1742.609,2320.339C1741.361,2322.499 1740.045,2324.342 1738.591,2325.732C1737.925,2326.368 1737.433,2327.123 1736.671,2327.123C1735.909,2327.123 1735.417,2326.368 1734.751,2325.732C1733.296,2324.342 1731.981,2322.499 1730.733,2320.339C1730.484,2319.909 1730.239,2319.469 1729.998,2319.018C1728.073,2315.414 1726.401,2311.164 1725.02,2306.408C1723.817,2302.267 1722.835,2297.741 1722.099,2292.925Z" style="fill:rgb(47,52,63);"/>
            <path d="M1991.456,1689.927C1991.375,1690.129 1991.296,1690.332 1991.218,1690.535C1989.572,1694.798 1988.351,1699.281 1987.612,1703.925C1987.069,1707.337 1986.786,1710.836 1986.786,1714.399C1986.786,1721.293 1987.865,1727.88 1989.802,1734.161L1989.805,1734.17C1998.172,1761.128 2023.36,1780.69 2053.074,1780.69C2089.688,1780.69 2119.365,1751.013 2119.365,1714.399C2119.365,1677.785 2089.688,1648.107 2053.074,1648.107C2025.105,1648.107 2001.201,1665.415 1991.456,1689.927ZM1264.169,2429.862L1546.253,2111.748C1593.494,2058.501 1616.706,1992.249 1616.706,1926.231C1616.706,1857.772 1591.78,1789.616 1542.687,1736.541C1522.114,1760.559 1500.767,1786.784 1478.736,1815.42C1473.73,1821.926 1468.69,1828.556 1463.615,1835.313L1463.491,1835.62C1462.623,1837.062 1460.408,1839.976 1456.959,1844.304C1425.675,1883.55 1278.574,2067.126 1264.169,2429.862ZM1886.798,1685.037C1900.388,1680.048 1911.89,1670.683 1919.525,1658.67L1920.139,1657.704C1926.469,1647.602 1930.12,1635.648 1930.12,1622.828C1930.12,1586.214 1900.443,1556.537 1863.829,1556.537C1827.218,1556.537 1797.541,1586.214 1797.541,1622.828C1797.541,1659.442 1827.218,1689.12 1863.829,1689.12C1871.722,1689.12 1879.322,1687.754 1886.358,1685.198L1886.798,1685.037Z" style="fill:rgb(47,52,63);"/>
        </g>
    </g>
    <g transform="matrix(4.166667,0,0,4.166667,0,0)">
        <path d="M78.32,207.32C79.95,204.48 81.58,201.63 83.21,198.79C83.49,199.27 83.78,199.76 84.05,200.24C86.3,204.22 88.95,204.6 92.16,201.38C92.62,200.92 92.89,200.29 93.22,199.79C93.79,200.24 93.95,200.34 94.08,200.48C98.13,204.8 101.95,204.13 103.31,198.25C104.25,194.19 105.82,193.23 109.87,193C129.27,191.9 146.17,184.44 160.85,171.82C161.06,171.64 161.32,171.52 161.57,171.36C162.38,172.06 161.98,172.97 161.99,173.75C162.04,177.54 162.03,181.33 162.01,185.12C161.96,194.38 162.98,192.32 155.23,196.61C138.16,206.07 119.9,211.02 100.23,210.11C92.84,209.77 85.5,209.1 78.29,207.31L78.32,207.32Z" style="fill:rgb(229,181,31);fill-rule:nonzero;"/>
    </g>
    <g transform="matrix(4.166667,0,0,4.166667,0,0)">
        <path d="M170.79,185.63C170.79,177.95 170.81,170.67 170.77,163.38C170.77,161.94 171.41,160.85 172.22,159.78C180.53,148.86 186.51,136.86 188.92,123.26C189.24,121.47 190.12,120.83 191.82,121C195.9,121.39 199.77,122.66 203.65,123.85C205.79,124.5 205.87,126.26 205.53,128.02C204.39,133.78 202.54,139.34 200.37,144.78C194.11,160.45 184.38,173.67 171.87,184.92C171.67,185.1 171.42,185.22 170.79,185.62L170.79,185.63Z" style="fill:rgb(229,181,31);fill-rule:nonzero;"/>
    </g>
    <g transform="matrix(4.166667,0,0,4.166667,0,0)">
        <path d="M28.9,148.87C26.01,155.51 23.54,162.31 21.3,169.19C9.63,152.62 2.86,134.23 0.7,114.16C1.25,113.61 1.63,114.04 1.98,114.26C7.29,117.72 12.57,121.22 17.89,124.67C19.32,125.6 20.11,126.82 20.56,128.48C22.5,135.61 25.24,142.43 28.9,148.86L28.9,148.87Z" style="fill:rgb(229,181,31);fill-rule:nonzero;"/>
    </g>
</svg>
