<?xml version="1.0" encoding="UTF-8" standalone="no"?>
<!DOCTYPE svg PUBLIC "-//W3C//DTD SVG 1.1//EN" "http://www.w3.org/Graphics/SVG/1.1/DTD/svg11.dtd">
<svg width="100%" height="100%" viewBox="0 0 2127 1015" version="1.1" xmlns="http://www.w3.org/2000/svg" xmlns:xlink="http://www.w3.org/1999/xlink" xml:space="preserve" xmlns:serif="http://www.serif.com/" style="fill-rule:evenodd;clip-rule:evenodd;stroke-linejoin:round;stroke-miterlimit:2;">
    <g id="Capa_1-2" transform="matrix(4.166667,0,0,4.166667,0,0)">
        <path d="M115.57,0C119.6,0.76 123.66,1.4 127.66,2.3C152.65,7.9 171.715,20.511 186.325,41.391C186.425,41.531 186.805,42.484 186.995,43.014C182.565,42.982 179.512,43.006 174.17,42.93C167.918,42.841 163.36,40.03 158.6,36.08C127.5,10.28 82.72,10.26 50.31,35.95C29.07,52.79 17.88,74.91 17,102.09C16.95,103.79 17,105.48 17,107.18L17,112.73C11.49,108.45 5.41,105.41 0.53,100.66C-0.12,98.99 0.78,97.16 0.01,95.5L0.01,94.36C0.68,88.76 0.95,83.12 2.4,77.61C6.82,60.8 14.72,45.99 26.72,33.29C43.45,15.56 63.96,5.1 87.81,0.79C90.4,0.33 93.06,0.57 95.64,0L97.92,0C99.06,0.46 100.2,0.46 101.34,0L110.45,0C111.58,0.46 112.72,0.46 113.86,0L115.57,0Z" style="fill:rgb(47,52,63);fill-rule:nonzero;"/>
        <path d="M0,95.51C1.11,97.14 0.37,98.95 0.52,100.67C0.35,100.64 0.18,100.63 0,100.63L0,95.51Z" style="fill:rgb(155,157,162);fill-rule:nonzero;"/>
        <path d="M113.86,0C112.72,0.94 111.58,0.81 110.44,0L113.86,0Z" style="fill:rgb(98,102,110);fill-rule:nonzero;"/>
        <path d="M101.34,0C100.2,0.81 99.06,0.94 97.92,0L101.34,0Z" style="fill:rgb(98,102,110);fill-rule:nonzero;"/>
        <g transform="matrix(0.152144,0,0,0.152144,-175.601104,-153.71589)">
            <g transform="matrix(4.166667,0,0,4.166667,2144.645833,2201.734167)">
                <path d="M-211.575,64.501L-138.92,-17.433C-126.523,-31.407 -120.432,-48.795 -120.432,-66.121C-120.432,-84.304 -127.136,-102.405 -140.33,-116.406C-101.815,-159.999 -75.763,-170.452 -75.763,-170.452L-75.084,-170.721L-74.594,-171.262C-66.087,-180.654 -60.782,-187.623 -56.789,-191.812C-54.814,-193.884 -53.44,-195.277 -51.918,-195.439C-51.334,-195.501 -50.782,-195.246 -50.151,-194.84C-49.421,-194.371 -48.66,-193.709 -47.82,-192.866C-44.033,-189.065 -39.081,-182.042 -31.07,-171.473L-30.168,-170.284L-28.677,-170.233C-16.374,-169.813 -7.949,-170.041 -2.343,-169.604C0.55,-169.378 2.526,-169.13 3.722,-168.151C4.305,-167.674 4.514,-166.956 4.632,-166.012C4.843,-164.331 4.665,-162.163 4.285,-159.358C3.311,-152.17 0.96,-141.275 -1.192,-124.729C-4.34,-133.15 -12.458,-139.145 -21.977,-139.145C-30.268,-139.145 -37.492,-134.599 -41.3,-127.859L-46.996,-130.227C-45.848,-132.898 -45.212,-135.842 -45.212,-138.937C-45.212,-151.19 -55.143,-161.121 -67.396,-161.121C-79.648,-161.121 -89.579,-151.19 -89.579,-138.937C-89.579,-126.685 -79.648,-116.753 -67.396,-116.753C-66.297,-116.753 -65.216,-116.833 -64.158,-116.988L-65.166,-97.8C-65.533,-91.122 -57.279,-87.685 -52.791,-92.659L-41.05,-105.632C-37.185,-99.132 -30.086,-94.777 -21.977,-94.777C-14.272,-94.777 -7.485,-98.704 -3.508,-104.666C-7.13,-82.525 -20.451,-56.784 -26.144,-47.251L-26.58,-47.906L-28.992,-43.048C-37.534,-25.84 -58.288,-8.088 -75.703,4.678C-76.416,2.755 -77.282,1.155 -78.235,-0.012C-79.897,-2.046 -81.886,-3.013 -83.886,-3.013C-85.887,-3.013 -87.876,-2.046 -89.538,-0.012C-90.017,0.575 -90.474,1.27 -90.9,2.061C-91.327,1.27 -91.784,0.575 -92.262,-0.012C-93.925,-2.046 -95.914,-3.013 -97.914,-3.013C-99.914,-3.013 -101.903,-2.046 -103.566,-0.012C-106.129,3.126 -108.065,9.398 -108.065,16.677C-108.065,20.783 -107.449,24.568 -106.452,27.651C-112.818,38.811 -132.412,73.137 -132.946,73.756L-133.466,74.358L-133.636,75.135C-133.933,76.488 -134.907,77.438 -136.15,78.195C-137.875,79.245 -140.097,79.903 -142.446,80.347C-149.213,81.626 -157.032,81.043 -159.12,80.778L-160.283,80.197L-161.776,81.133C-176.369,90.286 -191.652,94.144 -194.739,94.823C-194.883,94.855 -195.033,94.885 -195.094,94.898L-195.126,94.903C-207.603,96.853 -218.356,95.547 -224.697,92.16C-227.159,90.845 -228.914,89.294 -229.411,87.366C-229.867,85.594 -229.093,83.69 -227.308,81.622C-225.936,80.367 -214.692,70.061 -212.578,67.379C-211.773,66.36 -211.588,65.395 -211.619,64.665L-211.577,64.847C-211.577,64.731 -211.576,64.615 -211.575,64.501ZM-138.407,37.649C-137.981,38.44 -137.524,39.135 -137.045,39.721C-135.383,41.756 -133.394,42.722 -131.394,42.722C-129.393,42.722 -127.404,41.756 -125.742,39.721C-123.179,36.584 -121.243,30.312 -121.243,23.032C-121.243,15.753 -123.179,9.481 -125.742,6.343C-127.404,4.309 -129.393,3.342 -131.394,3.342C-133.394,3.342 -135.383,4.309 -137.045,6.343C-137.524,6.93 -137.981,7.625 -138.407,8.416C-138.834,7.625 -139.291,6.93 -139.77,6.343C-141.432,4.309 -143.421,3.342 -145.421,3.342C-147.422,3.342 -149.411,4.309 -151.073,6.343C-153.636,9.481 -155.572,15.753 -155.572,23.032C-155.572,30.312 -153.636,36.584 -151.073,39.721C-149.411,41.756 -147.422,42.722 -145.421,42.722C-143.421,42.722 -141.432,41.756 -139.77,39.721C-139.291,39.135 -138.834,38.44 -138.407,37.649ZM-135.27,23.032C-135.27,18.202 -134.353,13.9 -132.819,11.245C-132.519,10.726 -132.204,10.284 -131.854,9.95C-131.695,9.798 -131.577,9.616 -131.394,9.616C-131.211,9.616 -131.093,9.798 -130.933,9.95C-130.584,10.284 -130.268,10.726 -129.968,11.245C-128.434,13.9 -127.517,18.202 -127.517,23.032C-127.517,27.863 -128.434,32.165 -129.968,34.82C-130.268,35.339 -130.584,35.781 -130.933,36.114C-131.093,36.267 -131.211,36.448 -131.394,36.448C-131.577,36.448 -131.695,36.267 -131.854,36.114C-132.204,35.781 -132.519,35.339 -132.819,34.82C-134.353,32.165 -135.27,27.863 -135.27,23.032ZM-141.544,23.032C-141.544,27.863 -142.462,32.165 -143.996,34.82C-144.296,35.339 -144.611,35.781 -144.961,36.114C-145.12,36.267 -145.238,36.448 -145.421,36.448C-145.604,36.448 -145.722,36.267 -145.882,36.114C-146.231,35.781 -146.547,35.339 -146.847,34.82C-148.381,32.165 -149.298,27.863 -149.298,23.032C-149.298,18.202 -148.381,13.9 -146.847,11.245C-146.547,10.726 -146.231,10.284 -145.882,9.95C-145.722,9.798 -145.604,9.616 -145.421,9.616C-145.238,9.616 -145.12,9.798 -144.961,9.95C-144.611,10.284 -144.296,10.726 -143.996,11.245C-142.462,13.9 -141.544,18.202 -141.544,23.032ZM-87.763,16.873L-87.764,16.874L-87.763,16.677L-87.763,16.873ZM-94.037,16.677C-94.037,16.875 -94.036,17.073 -94.033,17.269L-94.042,17.275C-94.039,17.077 -94.037,16.878 -94.037,16.677ZM-37.688,-119.474C-37.511,-120.589 -37.218,-121.665 -36.823,-122.688C-36.804,-122.737 -36.785,-122.785 -36.766,-122.834L-36.822,-122.687C-37.218,-121.664 -37.511,-120.588 -37.688,-119.474ZM-211.315,54.751C-207.857,-32.306 -172.553,-76.364 -165.045,-85.783C-164.217,-86.822 -163.686,-87.521 -163.477,-87.867L-163.447,-87.941C-162.229,-89.563 -161.02,-91.154 -159.818,-92.715C-154.531,-99.588 -149.408,-105.882 -144.47,-111.646C-132.688,-98.908 -126.706,-82.551 -126.706,-66.121C-126.706,-50.277 -132.276,-34.376 -143.614,-21.597L-211.315,54.751ZM-57.773,-118.942C-54.872,-120.338 -52.323,-122.35 -50.302,-124.807L-43.58,-122.013C-43.959,-120.39 -44.16,-118.698 -44.16,-116.961C-44.16,-115.298 -43.974,-113.689 -43.627,-112.134L-57.446,-96.866C-57.975,-96.278 -58.944,-96.679 -58.901,-97.464L-58.901,-97.467L-57.773,-118.942ZM-61.884,-124.007L-61.989,-123.969C-63.678,-123.355 -65.502,-123.027 -67.396,-123.027C-76.183,-123.027 -83.305,-130.15 -83.305,-138.937C-83.305,-147.725 -76.183,-154.847 -67.396,-154.847C-58.609,-154.847 -51.486,-147.725 -51.486,-138.937C-51.486,-135.861 -52.363,-132.992 -53.882,-130.567L-54.029,-130.335C-55.861,-127.452 -58.622,-125.205 -61.884,-124.007Z" style="fill:rgb(47,52,63);fill-rule:nonzero;"/>
            </g>
            <path d="M1778.966,2271.223C1778.966,2265.966 1779.227,2260.858 1779.726,2255.984C1781.138,2242.199 1784.458,2230.281 1789.181,2222.107C1790.429,2219.948 1791.745,2218.105 1793.199,2216.715C1793.866,2216.078 1794.357,2215.323 1795.12,2215.323C1795.882,2215.323 1796.374,2216.078 1797.04,2216.715C1798.494,2218.105 1799.81,2219.948 1801.058,2222.107C1803.446,2226.24 1805.476,2231.331 1807.082,2237.137C1808.252,2241.367 1809.197,2245.978 1809.891,2250.873C1810.557,2255.572 1810.993,2260.534 1811.176,2265.675C1811.241,2267.503 1811.274,2269.354 1811.274,2271.223C1811.274,2291.35 1807.452,2309.276 1801.058,2320.339C1799.81,2322.499 1798.494,2324.342 1797.04,2325.732C1796.374,2326.368 1795.882,2327.123 1795.12,2327.123C1794.357,2327.123 1793.866,2326.368 1793.199,2325.732C1791.745,2324.342 1790.429,2322.499 1789.181,2320.339C1784.522,2312.277 1781.229,2300.572 1779.785,2287.026C1779.274,2282.233 1778.994,2277.211 1778.968,2272.038L1778.966,2271.223Z" style="fill:rgb(47,52,63);"/>
            <path d="M1722.099,2292.925C1721.067,2286.178 1720.517,2278.859 1720.517,2271.223C1720.517,2251.096 1724.339,2233.171 1730.733,2222.107C1731.981,2219.948 1733.296,2218.105 1734.751,2216.715C1735.417,2216.078 1735.909,2215.323 1736.671,2215.323C1737.433,2215.323 1737.925,2216.078 1738.591,2216.715C1740.045,2218.105 1741.361,2219.948 1742.609,2222.107C1749.003,2233.171 1752.824,2251.096 1752.824,2271.223C1752.824,2272.057 1752.818,2272.888 1752.805,2273.714C1752.716,2279.317 1752.331,2284.73 1751.674,2289.851C1750.849,2296.294 1749.596,2302.273 1747.971,2307.583C1746.482,2312.45 1744.681,2316.755 1742.609,2320.339C1741.361,2322.499 1740.045,2324.342 1738.591,2325.732C1737.925,2326.368 1737.433,2327.123 1736.671,2327.123C1735.909,2327.123 1735.417,2326.368 1734.751,2325.732C1733.296,2324.342 1731.981,2322.499 1730.733,2320.339C1730.484,2319.909 1730.239,2319.469 1729.998,2319.018C1728.073,2315.414 1726.401,2311.164 1725.02,2306.408C1723.817,2302.267 1722.835,2297.741 1722.099,2292.925Z" style="fill:rgb(47,52,63);"/>
            <path d="M1991.456,1689.927C1991.375,1690.129 1991.296,1690.332 1991.218,1690.535C1989.572,1694.798 1988.351,1699.281 1987.612,1703.925C1987.069,1707.337 1986.786,1710.836 1986.786,1714.399C1986.786,1721.293 1987.865,1727.88 1989.802,1734.161L1989.805,1734.17C1998.172,1761.128 2023.36,1780.69 2053.074,1780.69C2089.688,1780.69 2119.365,1751.013 2119.365,1714.399C2119.365,1677.785 2089.688,1648.107 2053.074,1648.107C2025.105,1648.107 2001.201,1665.415 1991.456,1689.927ZM1264.169,2429.862L1546.253,2111.748C1593.494,2058.501 1616.706,1992.249 1616.706,1926.231C1616.706,1857.772 1591.78,1789.616 1542.687,1736.541C1522.114,1760.559 1500.767,1786.784 1478.736,1815.42C1473.73,1821.926 1468.69,1828.556 1463.615,1835.313L1463.491,1835.62C1462.623,1837.062 1460.408,1839.976 1456.959,1844.304C1425.675,1883.55 1278.574,2067.126 1264.169,2429.862ZM1886.798,1685.037C1900.388,1680.048 1911.89,1670.683 1919.525,1658.67L1920.139,1657.704C1926.469,1647.602 1930.12,1635.648 1930.12,1622.828C1930.12,1586.214 1900.443,1556.537 1863.829,1556.537C1827.218,1556.537 1797.541,1586.214 1797.541,1622.828C1797.541,1659.442 1827.218,1689.12 1863.829,1689.12C1871.722,1689.12 1879.322,1687.754 1886.358,1685.198L1886.798,1685.037Z" style="fill:rgb(47,52,63);"/>
        </g>
        <path d="M78.32,207.32C79.95,204.48 81.58,201.63 83.21,198.79C83.49,199.27 83.78,199.76 84.05,200.24C86.3,204.22 88.95,204.6 92.16,201.38C92.62,200.92 92.89,200.29 93.22,199.79C93.79,200.24 93.95,200.34 94.08,200.48C98.13,204.8 101.95,204.13 103.31,198.25C104.25,194.19 105.82,193.23 109.87,193C129.27,191.9 146.17,184.44 160.85,171.82C161.06,171.64 161.32,171.52 161.57,171.36C162.38,172.06 161.98,172.97 161.99,173.75C162.04,177.54 162.03,181.33 162.01,185.12C161.96,194.38 162.98,192.32 155.23,196.61C138.16,206.07 119.9,211.02 100.23,210.11C92.84,209.77 85.5,209.1 78.29,207.31L78.32,207.32Z" style="fill:rgb(229,181,31);fill-rule:nonzero;"/>
        <path d="M170.79,185.63C170.79,177.95 170.81,170.67 170.77,163.38C170.77,161.94 171.41,160.85 172.22,159.78C180.53,148.86 186.51,136.86 188.92,123.26C189.24,121.47 190.12,120.83 191.82,121C195.9,121.39 199.77,122.66 203.65,123.85C205.79,124.5 205.87,126.26 205.53,128.02C204.39,133.78 202.54,139.34 200.37,144.78C194.11,160.45 184.38,173.67 171.87,184.92C171.67,185.1 171.42,185.22 170.79,185.62L170.79,185.63Z" style="fill:rgb(229,181,31);fill-rule:nonzero;"/>
        <path d="M28.9,148.87C26.01,155.51 23.54,162.31 21.3,169.19C9.63,152.62 2.86,134.23 0.7,114.16C1.25,113.61 1.63,114.04 1.98,114.26C7.29,117.72 12.57,121.22 17.89,124.67C19.32,125.6 20.11,126.82 20.56,128.48C22.5,135.61 25.24,142.43 28.9,148.86L28.9,148.87Z" style="fill:rgb(229,181,31);fill-rule:nonzero;"/>
        <g transform="matrix(0.276,0,0,0.24,-39.188268,2.106592)">
            <path d="M942.223,476.055C927.15,476.055 914.252,472.388 903.527,465.055C892.802,457.722 884.578,447.305 878.853,433.805C873.129,420.305 870.266,404.222 870.266,385.555C870.266,371.555 871.897,359.013 875.158,347.93C878.418,336.847 883.129,327.43 889.288,319.68C895.447,311.93 903.02,305.93 912.005,301.68C920.991,297.43 931.063,295.305 942.223,295.305C951.208,295.305 959.759,296.763 967.875,299.68C975.991,302.597 983.02,306.888 988.962,312.555C990.846,314.222 992.114,316.097 992.766,318.18C993.418,320.263 993.491,322.263 992.983,324.18C992.476,326.097 991.607,327.68 990.375,328.93C989.143,330.18 987.657,330.805 985.918,330.805C984.179,330.805 982.223,329.972 980.049,328.305C974.831,323.472 969.107,319.888 962.875,317.555C956.643,315.222 949.904,314.055 942.657,314.055C931.208,314.055 921.498,316.847 913.527,322.43C905.556,328.013 899.542,336.138 895.484,346.805C891.426,357.472 889.397,370.388 889.397,385.555C889.397,400.722 891.426,413.68 895.484,424.43C899.542,435.18 905.556,443.347 913.527,448.93C921.498,454.513 931.208,457.305 942.657,457.305C949.759,457.305 956.498,456.097 962.875,453.68C969.252,451.263 975.121,447.638 980.483,442.805C982.657,441.138 984.614,440.347 986.353,440.43C988.092,440.513 989.541,441.138 990.701,442.305C991.86,443.472 992.694,444.972 993.201,446.805C993.708,448.638 993.708,450.555 993.201,452.555C992.694,454.555 991.57,456.305 989.831,457.805C983.744,463.805 976.607,468.347 968.418,471.43C960.23,474.513 951.498,476.055 942.223,476.055Z" style="fill:rgb(47,52,63);fill-rule:nonzero;"/>
            <path d="M1028.527,475.055C1025.628,475.055 1023.454,474.097 1022.005,472.18C1020.556,470.263 1019.831,467.555 1019.831,464.055L1019.831,361.805C1019.831,358.305 1020.556,355.638 1022.005,353.805C1023.454,351.972 1025.628,351.055 1028.527,351.055C1031.28,351.055 1033.454,351.972 1035.049,353.805C1036.643,355.638 1037.44,358.305 1037.44,361.805L1037.44,464.055C1037.44,467.555 1036.679,470.263 1035.157,472.18C1033.636,474.097 1031.425,475.055 1028.527,475.055Z" style="fill:rgb(47,52,63);fill-rule:nonzero;"/>
            <path d="M1079.179,475.555C1076.28,475.555 1074.07,474.638 1072.549,472.805C1071.027,470.972 1070.266,468.388 1070.266,465.055L1070.266,360.805C1070.266,357.472 1070.991,354.93 1072.44,353.18C1073.889,351.43 1075.991,350.555 1078.744,350.555C1081.498,350.555 1083.635,351.43 1085.157,353.18C1086.679,354.93 1087.44,357.472 1087.44,360.805L1087.44,381.055L1085.266,381.055C1087.585,371.222 1092.005,363.638 1098.527,358.305C1105.048,352.972 1113.092,350.138 1122.657,349.805C1124.831,349.638 1126.57,350.18 1127.875,351.43C1129.179,352.68 1129.903,354.805 1130.048,357.805C1130.193,360.638 1129.614,362.888 1128.309,364.555C1127.005,366.222 1124.976,367.222 1122.222,367.555L1118.744,368.055C1108.889,369.055 1101.317,372.68 1096.027,378.93C1090.737,385.18 1088.092,393.722 1088.092,404.555L1088.092,465.055C1088.092,468.388 1087.331,470.972 1085.809,472.805C1084.288,474.638 1082.077,475.555 1079.179,475.555Z" style="fill:rgb(47,52,63);fill-rule:nonzero;"/>
            <path d="M1191.57,476.055C1180.99,476.055 1171.86,473.388 1164.179,468.055C1156.498,462.722 1150.592,455.263 1146.461,445.68C1142.331,436.097 1140.266,424.972 1140.266,412.305C1140.266,402.638 1141.425,393.972 1143.744,386.305C1146.063,378.638 1149.469,372.097 1153.961,366.68C1158.454,361.263 1163.853,357.138 1170.157,354.305C1176.461,351.472 1183.599,350.055 1191.57,350.055C1196.787,350.055 1202.222,350.972 1207.874,352.805C1213.527,354.638 1218.671,357.805 1223.309,362.305C1224.758,363.472 1225.7,364.888 1226.135,366.555C1226.57,368.222 1226.57,369.847 1226.135,371.43C1225.7,373.013 1224.976,374.347 1223.961,375.43C1222.947,376.513 1221.679,377.138 1220.157,377.305C1218.635,377.472 1217.077,376.888 1215.483,375.555C1211.715,372.222 1207.874,369.888 1203.961,368.555C1200.048,367.222 1196.28,366.555 1192.657,366.555C1187.005,366.555 1182.077,367.597 1177.874,369.68C1173.672,371.763 1170.121,374.722 1167.222,378.555C1164.324,382.388 1162.114,387.138 1160.592,392.805C1159.07,398.472 1158.309,405.055 1158.309,412.555C1158.309,427.055 1161.28,438.513 1167.222,446.93C1173.164,455.347 1181.643,459.555 1192.657,459.555C1196.28,459.555 1200.012,458.888 1203.853,457.555C1207.693,456.222 1211.57,453.888 1215.483,450.555C1217.077,449.222 1218.599,448.638 1220.048,448.805C1221.498,448.972 1222.729,449.597 1223.744,450.68C1224.758,451.763 1225.447,453.138 1225.809,454.805C1226.171,456.472 1226.135,458.097 1225.7,459.68C1225.266,461.263 1224.324,462.638 1222.874,463.805C1218.237,468.138 1213.164,471.263 1207.657,473.18C1202.15,475.097 1196.787,476.055 1191.57,476.055Z" style="fill:rgb(47,52,63);fill-rule:nonzero;"/>
            <path d="M1284.831,476.055C1276.28,476.055 1269.215,474.263 1263.635,470.68C1258.055,467.097 1253.853,461.722 1251.026,454.555C1248.2,447.388 1246.787,438.472 1246.787,427.805L1246.787,360.805C1246.787,357.305 1247.548,354.722 1249.07,353.055C1250.592,351.388 1252.729,350.555 1255.483,350.555C1258.382,350.555 1260.592,351.388 1262.113,353.055C1263.635,354.722 1264.396,357.305 1264.396,360.805L1264.396,427.555C1264.396,438.222 1266.316,446.18 1270.157,451.43C1273.997,456.68 1280.048,459.305 1288.309,459.305C1297.294,459.305 1304.613,455.805 1310.265,448.805C1315.918,441.805 1318.744,432.638 1318.744,421.305L1318.744,360.805C1318.744,357.305 1319.505,354.722 1321.026,353.055C1322.548,351.388 1324.758,350.555 1327.657,350.555C1330.41,350.555 1332.548,351.388 1334.07,353.055C1335.592,354.722 1336.352,357.305 1336.352,360.805L1336.352,465.055C1336.352,472.055 1333.526,475.555 1327.874,475.555C1325.121,475.555 1322.983,474.638 1321.461,472.805C1319.939,470.972 1319.179,468.388 1319.179,465.055L1319.179,442.305L1322.005,445.805C1319.106,455.638 1314.36,463.138 1307.765,468.305C1301.171,473.472 1293.526,476.055 1284.831,476.055Z" style="fill:rgb(47,52,63);fill-rule:nonzero;"/>
            <path d="M1401.57,476.055C1391.135,476.055 1383.164,472.388 1377.657,465.055C1372.149,457.722 1369.396,447.222 1369.396,433.555L1369.396,306.055C1369.396,302.722 1370.12,300.18 1371.57,298.43C1373.019,296.68 1375.193,295.805 1378.091,295.805C1380.845,295.805 1383.019,296.68 1384.613,298.43C1386.207,300.18 1387.004,302.722 1387.004,306.055L1387.004,432.055C1387.004,441.055 1388.562,447.763 1391.678,452.18C1394.794,456.597 1399.396,458.805 1405.483,458.805C1406.787,458.805 1407.946,458.722 1408.961,458.555C1409.975,458.388 1410.99,458.305 1412.004,458.305C1413.599,458.138 1414.722,458.555 1415.374,459.555C1416.026,460.555 1416.352,462.555 1416.352,465.555C1416.352,468.555 1415.773,470.805 1414.613,472.305C1413.454,473.805 1411.57,474.805 1408.961,475.305C1407.802,475.472 1406.57,475.638 1405.265,475.805C1403.961,475.972 1402.729,476.055 1401.57,476.055Z" style="fill:rgb(47,52,63);fill-rule:nonzero;"/>
            <path d="M1476.57,476.055C1466.28,476.055 1457.367,473.472 1449.83,468.305C1442.294,463.138 1436.461,455.847 1432.33,446.43C1428.2,437.013 1426.135,425.888 1426.135,413.055C1426.135,403.388 1427.294,394.68 1429.613,386.93C1431.932,379.18 1435.338,372.555 1439.83,367.055C1444.323,361.555 1449.649,357.347 1455.809,354.43C1461.968,351.513 1468.888,350.055 1476.57,350.055C1486.859,350.055 1495.772,352.638 1503.309,357.805C1510.845,362.972 1516.678,370.263 1520.809,379.68C1524.939,389.097 1527.004,400.222 1527.004,413.055C1527.004,422.722 1525.845,431.388 1523.526,439.055C1521.207,446.722 1517.801,453.347 1513.309,458.93C1508.816,464.513 1503.49,468.763 1497.33,471.68C1491.171,474.597 1484.251,476.055 1476.57,476.055ZM1476.57,459.805C1483.091,459.805 1488.816,457.972 1493.743,454.305C1498.671,450.638 1502.475,445.305 1505.156,438.305C1507.838,431.305 1509.178,422.888 1509.178,413.055C1509.178,397.888 1506.243,386.305 1500.374,378.305C1494.504,370.305 1486.57,366.305 1476.57,366.305C1469.903,366.305 1464.142,368.097 1459.287,371.68C1454.432,375.263 1450.664,380.513 1447.983,387.43C1445.301,394.347 1443.961,402.888 1443.961,413.055C1443.961,428.055 1446.932,439.597 1452.874,447.68C1458.816,455.763 1466.714,459.805 1476.57,459.805Z" style="fill:rgb(47,52,63);fill-rule:nonzero;"/>
            <path d="M1589.178,476.055C1582.656,476.055 1576.098,475.138 1569.504,473.305C1562.91,471.472 1556.787,468.305 1551.135,463.805C1549.685,462.638 1548.671,461.263 1548.091,459.68C1547.511,458.097 1547.33,456.513 1547.548,454.93C1547.765,453.347 1548.345,451.972 1549.287,450.805C1550.229,449.638 1551.388,448.93 1552.765,448.68C1554.142,448.43 1555.7,448.805 1557.439,449.805C1563.091,453.805 1568.562,456.597 1573.852,458.18C1579.142,459.763 1584.395,460.555 1589.613,460.555C1597.874,460.555 1604.106,458.805 1608.308,455.305C1612.511,451.805 1614.613,447.055 1614.613,441.055C1614.613,436.388 1613.236,432.68 1610.482,429.93C1607.729,427.18 1603.381,425.055 1597.439,423.555L1577.656,418.555C1568.526,416.388 1561.751,412.638 1557.33,407.305C1552.91,401.972 1550.7,395.055 1550.7,386.555C1550.7,379.055 1552.403,372.597 1555.809,367.18C1559.214,361.763 1564.033,357.555 1570.265,354.555C1576.497,351.555 1583.743,350.055 1592.004,350.055C1598.381,350.055 1604.432,351.013 1610.156,352.93C1615.881,354.847 1621.062,357.888 1625.7,362.055C1627.149,363.222 1628.127,364.597 1628.634,366.18C1629.142,367.763 1629.214,369.347 1628.852,370.93C1628.49,372.513 1627.801,373.847 1626.787,374.93C1625.772,376.013 1624.54,376.638 1623.091,376.805C1621.642,376.972 1620.12,376.472 1618.526,375.305C1614.178,371.972 1609.758,369.513 1605.265,367.93C1600.772,366.347 1596.352,365.555 1592.004,365.555C1583.888,365.555 1577.729,367.388 1573.526,371.055C1569.323,374.722 1567.222,379.555 1567.222,385.555C1567.222,390.222 1568.526,394.055 1571.135,397.055C1573.743,400.055 1577.801,402.222 1583.308,403.555L1603.091,408.305C1612.511,410.638 1619.577,414.347 1624.287,419.43C1628.997,424.513 1631.352,431.388 1631.352,440.055C1631.352,451.055 1627.511,459.805 1619.83,466.305C1612.149,472.805 1601.932,476.055 1589.178,476.055Z" style="fill:rgb(47,52,63);fill-rule:nonzero;"/>
            <path d="M1754.395,476.055C1744.975,476.055 1736.75,473.472 1729.721,468.305C1722.692,463.138 1717.258,455.847 1713.417,446.43C1709.576,437.013 1707.656,425.888 1707.656,413.055C1707.656,400.055 1709.576,388.847 1713.417,379.43C1717.258,370.013 1722.692,362.763 1729.721,357.68C1736.75,352.597 1744.975,350.055 1754.395,350.055C1763.96,350.055 1772.149,352.805 1778.96,358.305C1785.772,363.805 1790.337,371.222 1792.656,380.555L1790.265,380.555L1790.265,306.055C1790.265,302.722 1791.025,300.18 1792.547,298.43C1794.069,296.68 1796.279,295.805 1799.178,295.805C1801.931,295.805 1804.069,296.68 1805.591,298.43C1807.112,300.18 1807.873,302.722 1807.873,306.055L1807.873,465.055C1807.873,468.388 1807.149,470.972 1805.699,472.805C1804.25,474.638 1802.076,475.555 1799.178,475.555C1796.424,475.555 1794.286,474.638 1792.765,472.805C1791.243,470.972 1790.482,468.388 1790.482,465.055L1790.482,441.305L1792.873,444.805C1790.554,454.305 1785.953,461.888 1779.069,467.555C1772.185,473.222 1763.96,476.055 1754.395,476.055ZM1758.091,459.805C1764.612,459.805 1770.337,457.972 1775.265,454.305C1780.192,450.638 1783.997,445.305 1786.678,438.305C1789.359,431.305 1790.699,422.888 1790.699,413.055C1790.699,397.888 1787.765,386.305 1781.895,378.305C1776.026,370.305 1768.091,366.305 1758.091,366.305C1751.424,366.305 1745.663,368.097 1740.808,371.68C1735.953,375.263 1732.185,380.513 1729.504,387.43C1726.823,394.347 1725.482,402.888 1725.482,413.055C1725.482,428.055 1728.453,439.597 1734.395,447.68C1740.337,455.763 1748.236,459.805 1758.091,459.805Z" style="fill:rgb(47,52,63);fill-rule:nonzero;"/>
            <path d="M1888.525,476.055C1877.366,476.055 1867.764,473.513 1859.721,468.43C1851.678,463.347 1845.446,456.138 1841.025,446.805C1836.605,437.472 1834.395,426.305 1834.395,413.305C1834.395,400.638 1836.569,389.597 1840.917,380.18C1845.265,370.763 1851.243,363.388 1858.851,358.055C1866.46,352.722 1875.264,350.055 1885.264,350.055C1892.366,350.055 1898.743,351.43 1904.395,354.18C1910.047,356.93 1914.866,360.888 1918.851,366.055C1922.837,371.222 1925.88,377.472 1927.982,384.805C1930.083,392.138 1931.134,400.388 1931.134,409.555C1931.134,412.222 1930.482,414.18 1929.177,415.43C1927.873,416.68 1925.989,417.305 1923.525,417.305L1847.873,417.305L1847.873,404.055L1919.395,404.055L1915.917,407.305C1915.917,398.305 1914.757,390.68 1912.438,384.43C1910.119,378.18 1906.75,373.388 1902.33,370.055C1897.909,366.722 1892.366,365.055 1885.699,365.055C1878.308,365.055 1872.04,367.013 1866.895,370.93C1861.75,374.847 1857.873,380.263 1855.265,387.18C1852.656,394.097 1851.351,402.138 1851.351,411.305L1851.351,412.805C1851.351,428.138 1854.576,439.805 1861.025,447.805C1867.475,455.805 1876.641,459.805 1888.525,459.805C1893.453,459.805 1898.344,459.055 1903.199,457.555C1908.054,456.055 1912.801,453.555 1917.438,450.055C1919.467,448.555 1921.315,447.847 1922.982,447.93C1924.648,448.013 1925.989,448.597 1927.004,449.68C1928.018,450.763 1928.706,452.097 1929.069,453.68C1929.431,455.263 1929.286,456.972 1928.634,458.805C1927.982,460.638 1926.714,462.222 1924.83,463.555C1920.047,467.555 1914.395,470.638 1907.873,472.805C1901.351,474.972 1894.902,476.055 1888.525,476.055Z" style="fill:rgb(47,52,63);fill-rule:nonzero;"/>
        </g>
        <g transform="matrix(0.253232,0,0,0.24,-8.462632,59.738005)">
            <path d="M891.361,474.055C886.149,474.055 882.16,472.597 879.396,469.68C876.632,466.763 875.25,462.555 875.25,457.055L875.25,314.805C875.25,309.305 876.632,305.097 879.396,302.18C882.16,299.263 886.149,297.805 891.361,297.805L975.948,297.805C979.897,297.805 982.937,298.888 985.07,301.055C987.202,303.222 988.268,306.305 988.268,310.305C988.268,314.472 987.202,317.68 985.07,319.93C982.937,322.18 979.897,323.305 975.948,323.305L904.393,323.305L904.393,371.805L970.735,371.805C974.842,371.805 977.922,372.888 979.976,375.055C982.029,377.222 983.056,380.388 983.056,384.555C983.056,388.722 982.029,391.888 979.976,394.055C977.922,396.222 974.842,397.305 970.735,397.305L904.393,397.305L904.393,448.555L975.948,448.555C979.897,448.555 982.937,449.638 985.07,451.805C987.202,453.972 988.268,457.138 988.268,461.305C988.268,465.472 987.202,468.638 985.07,470.805C982.937,472.972 979.897,474.055 975.948,474.055L891.361,474.055Z" style="fill:rgb(47,52,63);fill-rule:nonzero;"/>
            <path d="M1055.084,476.555C1048.292,476.555 1041.105,475.805 1033.523,474.305C1025.941,472.805 1019.149,470.222 1013.147,466.555C1010.619,464.888 1008.842,462.93 1007.816,460.68C1006.789,458.43 1006.394,456.18 1006.631,453.93C1006.868,451.68 1007.658,449.722 1009,448.055C1010.343,446.388 1012.08,445.305 1014.213,444.805C1016.345,444.305 1018.675,444.722 1021.202,446.055C1027.521,449.222 1033.444,451.43 1038.973,452.68C1044.501,453.93 1049.951,454.555 1055.321,454.555C1062.903,454.555 1068.55,453.18 1072.262,450.43C1075.974,447.68 1077.83,444.055 1077.83,439.555C1077.83,435.722 1076.606,432.763 1074.158,430.68C1071.709,428.597 1068.037,427.055 1063.14,426.055L1039.447,421.305C1029.653,419.305 1022.19,415.513 1017.056,409.93C1011.922,404.347 1009.356,397.138 1009.356,388.305C1009.356,380.305 1011.449,373.388 1015.634,367.555C1019.82,361.722 1025.625,357.222 1033.049,354.055C1040.473,350.888 1049.003,349.305 1058.638,349.305C1065.589,349.305 1072.104,350.097 1078.186,351.68C1084.267,353.263 1090.151,355.722 1095.837,359.055C1098.207,360.388 1099.826,362.138 1100.695,364.305C1101.563,366.472 1101.761,368.68 1101.287,370.93C1100.813,373.18 1099.865,375.18 1098.444,376.93C1097.022,378.68 1095.245,379.763 1093.113,380.18C1090.98,380.597 1088.571,380.138 1085.886,378.805C1080.989,376.138 1076.29,374.222 1071.788,373.055C1067.287,371.888 1062.982,371.305 1058.875,371.305C1051.135,371.305 1045.409,372.722 1041.697,375.555C1037.985,378.388 1036.129,382.138 1036.129,386.805C1036.129,390.305 1037.235,393.222 1039.447,395.555C1041.658,397.888 1045.054,399.472 1049.635,400.305L1073.329,405.055C1083.596,407.055 1091.375,410.722 1096.667,416.055C1101.958,421.388 1104.604,428.555 1104.604,437.555C1104.604,449.722 1100.102,459.263 1091.099,466.18C1082.095,473.097 1070.09,476.555 1055.084,476.555Z" style="fill:rgb(47,52,63);fill-rule:nonzero;"/>
            <path d="M1180.187,476.555C1169.92,476.555 1161.35,474.722 1154.479,471.055C1147.608,467.388 1142.514,462.013 1139.197,454.93C1135.88,447.847 1134.221,439.055 1134.221,428.555L1134.221,375.305L1121.901,375.305C1118.11,375.305 1115.187,374.263 1113.134,372.18C1111.08,370.097 1110.054,367.222 1110.054,363.555C1110.054,359.722 1111.08,356.805 1113.134,354.805C1115.187,352.805 1118.11,351.805 1121.901,351.805L1134.221,351.805L1134.221,329.055C1134.221,323.888 1135.524,319.972 1138.131,317.305C1140.737,314.638 1144.409,313.305 1149.148,313.305C1153.887,313.305 1157.52,314.638 1160.047,317.305C1162.575,319.972 1163.838,323.888 1163.838,329.055L1163.838,351.805L1188.954,351.805C1192.745,351.805 1195.667,352.805 1197.72,354.805C1199.774,356.805 1200.8,359.722 1200.8,363.555C1200.8,367.222 1199.774,370.097 1197.72,372.18C1195.667,374.263 1192.745,375.305 1188.954,375.305L1163.838,375.305L1163.838,426.805C1163.838,434.805 1165.497,440.805 1168.814,444.805C1172.131,448.805 1177.502,450.805 1184.926,450.805C1187.611,450.805 1189.98,450.555 1192.034,450.055C1194.087,449.555 1195.904,449.222 1197.483,449.055C1199.379,448.888 1200.958,449.513 1202.222,450.93C1203.486,452.347 1204.118,455.222 1204.118,459.555C1204.118,462.888 1203.604,465.847 1202.577,468.43C1201.551,471.013 1199.695,472.805 1197.009,473.805C1194.956,474.472 1192.271,475.097 1188.954,475.68C1185.636,476.263 1182.714,476.555 1180.187,476.555Z" style="fill:rgb(47,52,63);fill-rule:nonzero;"/>
            <path d="M1260.035,476.555C1250.399,476.555 1242.422,474.68 1236.104,470.93C1229.786,467.18 1225.086,461.555 1222.006,454.055C1218.926,446.555 1217.386,437.222 1217.386,426.055L1217.386,365.555C1217.386,360.222 1218.65,356.263 1221.177,353.68C1223.704,351.097 1227.337,349.805 1232.076,349.805C1236.815,349.805 1240.487,351.097 1243.094,353.68C1245.7,356.263 1247.003,360.222 1247.003,365.555L1247.003,426.555C1247.003,435.222 1248.662,441.638 1251.979,445.805C1255.296,449.972 1260.587,452.055 1267.853,452.055C1275.751,452.055 1282.228,449.18 1287.282,443.43C1292.337,437.68 1294.864,430.055 1294.864,420.555L1294.864,365.555C1294.864,360.222 1296.128,356.263 1298.655,353.68C1301.183,351.097 1304.816,349.805 1309.554,349.805C1314.293,349.805 1317.966,351.097 1320.572,353.68C1323.178,356.263 1324.481,360.222 1324.481,365.555L1324.481,460.055C1324.481,470.722 1319.664,476.055 1310.028,476.055C1305.447,476.055 1301.893,474.68 1299.366,471.93C1296.839,469.18 1295.575,465.222 1295.575,460.055L1295.575,441.055L1298.892,448.555C1295.575,457.555 1290.56,464.472 1283.847,469.305C1277.133,474.138 1269.196,476.555 1260.035,476.555Z" style="fill:rgb(47,52,63);fill-rule:nonzero;"/>
            <path d="M1399.827,476.555C1389.718,476.555 1380.833,473.972 1373.172,468.805C1365.511,463.638 1359.548,456.263 1355.283,446.68C1351.018,437.097 1348.886,425.805 1348.886,412.805C1348.886,399.638 1351.018,388.347 1355.283,378.93C1359.548,369.513 1365.511,362.222 1373.172,357.055C1380.833,351.888 1389.718,349.305 1399.827,349.305C1409.463,349.305 1417.874,351.805 1425.061,356.805C1432.248,361.805 1437.105,368.388 1439.632,376.555L1437.026,376.555L1437.026,311.555C1437.026,306.388 1438.29,302.472 1440.817,299.805C1443.344,297.138 1446.977,295.805 1451.716,295.805C1456.455,295.805 1460.127,297.138 1462.734,299.805C1465.34,302.472 1466.643,306.388 1466.643,311.555L1466.643,460.055C1466.643,465.222 1465.38,469.18 1462.852,471.93C1460.325,474.68 1456.692,476.055 1451.953,476.055C1447.214,476.055 1443.581,474.68 1441.054,471.93C1438.527,469.18 1437.263,465.222 1437.263,460.055L1437.263,440.555L1439.869,448.055C1437.5,456.722 1432.682,463.638 1425.416,468.805C1418.15,473.972 1409.62,476.555 1399.827,476.555ZM1408.12,452.805C1413.964,452.805 1419.098,451.305 1423.521,448.305C1427.944,445.305 1431.379,440.847 1433.828,434.93C1436.276,429.013 1437.5,421.638 1437.5,412.805C1437.5,399.472 1434.815,389.513 1429.444,382.93C1424.074,376.347 1416.966,373.055 1408.12,373.055C1402.275,373.055 1397.142,374.513 1392.719,377.43C1388.296,380.347 1384.861,384.763 1382.412,390.68C1379.964,396.597 1378.74,403.972 1378.74,412.805C1378.74,425.972 1381.425,435.93 1386.796,442.68C1392.166,449.43 1399.274,452.805 1408.12,452.805Z" style="fill:rgb(47,52,63);fill-rule:nonzero;"/>
            <path d="M1512.135,475.805C1507.396,475.805 1503.763,474.305 1501.236,471.305C1498.709,468.305 1497.445,464.138 1497.445,458.805L1497.445,367.055C1497.445,361.555 1498.709,357.347 1501.236,354.43C1503.763,351.513 1507.396,350.055 1512.135,350.055C1516.874,350.055 1520.546,351.513 1523.153,354.43C1525.759,357.347 1527.062,361.555 1527.062,367.055L1527.062,458.805C1527.062,464.138 1525.798,468.305 1523.271,471.305C1520.744,474.305 1517.032,475.805 1512.135,475.805ZM1512.135,326.805C1506.607,326.805 1502.302,325.347 1499.222,322.43C1496.142,319.513 1494.602,315.472 1494.602,310.305C1494.602,304.972 1496.142,300.888 1499.222,298.055C1502.302,295.222 1506.607,293.805 1512.135,293.805C1517.822,293.805 1522.165,295.222 1525.167,298.055C1528.168,300.888 1529.668,304.972 1529.668,310.305C1529.668,315.472 1528.168,319.513 1525.167,322.43C1522.165,325.347 1517.822,326.805 1512.135,326.805Z" style="fill:rgb(47,52,63);fill-rule:nonzero;"/>
            <path d="M1610.701,476.555C1598.696,476.555 1588.271,473.972 1579.425,468.805C1570.579,463.638 1563.708,456.263 1558.812,446.68C1553.915,437.097 1551.467,425.805 1551.467,412.805C1551.467,402.972 1552.849,394.18 1555.613,386.43C1558.377,378.68 1562.366,372.013 1567.578,366.43C1572.791,360.847 1579.03,356.597 1586.296,353.68C1593.562,350.763 1601.697,349.305 1610.701,349.305C1622.705,349.305 1633.131,351.888 1641.976,357.055C1650.822,362.222 1657.693,369.555 1662.59,379.055C1667.486,388.555 1669.935,399.805 1669.935,412.805C1669.935,422.638 1668.553,431.472 1665.788,439.305C1663.024,447.138 1659.036,453.847 1653.823,459.43C1648.611,465.013 1642.371,469.263 1635.105,472.18C1627.839,475.097 1619.704,476.555 1610.701,476.555ZM1610.701,452.805C1616.545,452.805 1621.679,451.305 1626.102,448.305C1630.524,445.305 1633.96,440.847 1636.408,434.93C1638.857,429.013 1640.081,421.638 1640.081,412.805C1640.081,399.472 1637.396,389.513 1632.025,382.93C1626.654,376.347 1619.546,373.055 1610.701,373.055C1604.856,373.055 1599.723,374.513 1595.3,377.43C1590.877,380.347 1587.441,384.763 1584.993,390.68C1582.545,396.597 1581.321,403.972 1581.321,412.805C1581.321,425.972 1584.006,435.93 1589.376,442.68C1594.747,449.43 1601.855,452.805 1610.701,452.805Z" style="fill:rgb(47,52,63);fill-rule:nonzero;"/>
        </g>
        <g transform="matrix(-0.130189,-0.102061,0.111649,-0.142419,351.55289,226.326282)">
            <path d="M1046.533,251.648C1046.533,251.648 1063.292,290.599 1063.292,307.293C1063.292,315.748 1055.782,322.613 1046.533,322.613C1037.283,322.613 1029.774,315.748 1029.774,307.293C1029.774,290.599 1046.533,251.648 1046.533,251.648Z" style="fill:rgb(47,52,63);"/>
        </g>
    </g>
</svg>
